<svg xmlns="http://www.w3.org/2000/svg" version="1.1" xmlns:xlink="http://www.w3.org/1999/xlink" xmlns:svgjs="http://svgjs.dev/svgjs" width="1000" height="532" viewBox="0 0 1000 532"><g transform="matrix(1,0,0,1,-0.6060606060606801,0.5303358040602575)"><svg viewBox="0 0 396 211" data-background-color="#ffffff" preserveAspectRatio="xMidYMid meet" height="532" width="1000" xmlns="http://www.w3.org/2000/svg" xmlns:xlink="http://www.w3.org/1999/xlink"><g id="tight-bounds" transform="matrix(1,0,0,1,0.24000000000003752,-0.21033633020932996)"><svg viewBox="0 0 395.5199999999999 211.42067553107674" height="211.42067553107674" width="395.5199999999999"><g><svg viewBox="0 0 395.5199999999999 211.42067553107674" height="211.42067553107674" width="395.5199999999999"><g transform="matrix(1,0,0,1,0,107.71205783796321)"><svg viewBox="0 0 395.5199999999999 103.70861769311352" height="103.70861769311352" width="395.5199999999999"><g id="textblocktransform"><svg viewBox="0 0 395.5199999999999 103.70861769311352" height="103.70861769311352" width="395.5199999999999" id="textblock"><g><svg viewBox="0 0 395.5199999999999 64.87793070476083" height="64.87793070476083" width="395.5199999999999"><g transform="matrix(1,0,0,1,0,0)"><svg width="395.5199999999999" viewBox="5.449790000915527 -24.427349090576172 308.63568115234375 50.626121520996094" height="64.87793070476083" data-palette-color="#ffa458"><path d="M5.45-17.718l1.221-6.709 23.799 4.33-1.221 6.71-8.589-1.563-5.202 28.591-6.956-1.266 5.202-28.591zM30.34-1.983v0c0.344-2.449 1.134-4.701 2.372-6.756 1.245-2.06 2.815-3.819 4.709-5.277 1.894-1.458 4.002-2.515 6.322-3.172 2.327-0.656 4.745-0.809 7.254-0.457v0c2.482 0.348 4.749 1.158 6.798 2.429 2.057 1.271 3.811 2.871 5.264 4.798 1.453 1.927 2.498 4.053 3.135 6.377 0.644 2.319 0.794 4.703 0.45 7.152v0c-0.352 2.509-1.157 4.792-2.415 6.851-1.251 2.053-2.837 3.789-4.76 5.209-1.923 1.42-4.046 2.445-6.369 3.075-2.316 0.624-4.715 0.762-7.197 0.414v0c-2.509-0.352-4.794-1.147-6.855-2.386-2.054-1.244-3.793-2.811-5.218-4.7-1.425-1.89-2.452-3.993-3.083-6.31-0.623-2.322-0.759-4.738-0.407-7.247zM37.579-0.967v0c-0.221 1.578-0.147 3.089 0.222 4.535 0.376 1.446 0.996 2.762 1.86 3.946 0.869 1.192 1.93 2.173 3.182 2.941 1.26 0.762 2.675 1.254 4.246 1.474v0c1.518 0.213 2.968 0.124 4.35-0.268 1.389-0.398 2.639-1.054 3.75-1.968 1.11-0.908 2.035-2.007 2.775-3.296 0.74-1.29 1.22-2.724 1.441-4.302v0c0.226-1.611 0.156-3.149-0.211-4.614-0.374-1.459-0.976-2.783-1.806-3.969-0.837-1.181-1.875-2.155-3.114-2.921-1.239-0.766-2.631-1.258-4.176-1.475v0c-1.545-0.217-3.018-0.127-4.42 0.269-1.402 0.396-2.675 1.045-3.818 1.948-1.144 0.91-2.087 2.016-2.828 3.319-0.743 1.31-1.227 2.77-1.453 4.381zM78.535 22.125l-6.803-0.608 3.32-37.202 0.05 0.005 17.347 29.94-2.947-0.945 22.265-25.723 0.099 0.009-3.32 37.202-7.042-0.628 1.902-21.316 0.114 3.675-13.627 16.112-0.099-0.008-10.896-18.302 1.514-3.238zM121.296 25.262l-6.966-0.249 17.501-36.698 0.39 0.014 14.848 37.854-8.184-0.293-9.398-26.582 5.243-3.325zM123.445 18.314l2.401-5.868 10.773 0.385 2.266 6.035zM147.359-2.914l0.024-6.82 24.19 0.083-0.024 6.82-8.73-0.03-0.099 29.06-7.07-0.024 0.099-29.06zM174.627 8.204v0c-0.092-2.472 0.291-4.827 1.148-7.068 0.864-2.247 2.1-4.254 3.708-6.022 1.609-1.768 3.498-3.179 5.667-4.233 2.176-1.055 4.529-1.629 7.061-1.724v0c2.505-0.093 4.878 0.306 7.119 1.197 2.248 0.89 4.256 2.157 6.026 3.798 1.769 1.642 3.171 3.551 4.205 5.728 1.041 2.169 1.608 4.49 1.7 6.962v0c0.094 2.532-0.297 4.921-1.174 7.168-0.871 2.241-2.128 4.229-3.771 5.964-1.643 1.736-3.553 3.118-5.73 4.146-2.17 1.021-4.508 1.579-7.013 1.672v0c-2.532 0.094-4.921-0.287-7.167-1.144-2.24-0.864-4.228-2.101-5.962-3.711-1.734-1.61-3.116-3.5-4.144-5.67-1.022-2.177-1.579-4.531-1.673-7.063zM181.931 7.932v0c0.059 1.592 0.398 3.067 1.016 4.426 0.624 1.358 1.466 2.544 2.524 3.558 1.065 1.021 2.282 1.8 3.649 2.336 1.374 0.529 2.854 0.764 4.439 0.706v0c1.532-0.057 2.944-0.4 4.235-1.028 1.297-0.635 2.413-1.501 3.346-2.596 0.934-1.089 1.651-2.333 2.153-3.733 0.502-1.4 0.723-2.896 0.663-4.488v0c-0.06-1.626-0.4-3.127-1.018-4.505-0.625-1.371-1.45-2.568-2.475-3.591-1.032-1.016-2.225-1.792-3.579-2.328-1.354-0.537-2.811-0.776-4.37-0.718v0c-1.559 0.058-2.994 0.405-4.304 1.04-1.311 0.636-2.449 1.499-3.416 2.589-0.967 1.097-1.7 2.351-2.202 3.765-0.501 1.42-0.721 2.942-0.66 4.567zM238.934-13.62l1.298 12.704-0.016 1.811 0.936-1.463 10.296-14.331 9.113-0.931-13.107 17.513 16.805 18.176-8.923 0.912-12.57-14.105-1.562 1.929 1.378 13.479-7.133 0.73-3.648-35.694zM269.865 19.038l-4.655-35.577 7.01-0.917 4.656 35.577zM314.085 12.034l-30.11 4.984c0 0 0.201-0.479 0.604-1.438 0.403-0.952 0.942-2.227 1.616-3.825 0.676-1.592 1.431-3.396 2.267-5.413 0.835-2.017 1.696-4.085 2.581-6.205 0.885-2.126 1.744-4.198 2.58-6.214 0.835-2.017 1.591-3.821 2.266-5.413 0.675-1.598 1.214-2.873 1.617-3.826 0.402-0.959 0.603-1.438 0.603-1.438v0l1.088 1.797-12.746 2.11c-0.677 0.112-1.4 0.076-2.167-0.108-0.774-0.183-1.454-0.499-2.042-0.949-0.58-0.445-0.924-0.989-1.031-1.633v0l-0.836-5.052 6.393-1.058 0.111 0.671c0.118 0.71 0.289 1.054 0.515 1.03 0.233-0.018 0.636-0.075 1.209-0.17v0l19.672-3.257-13.784 32.518-0.513-0.706 18.992-3.144z" opacity="1" transform="matrix(1,0,0,1,0,0)" fill="#ffa458" class="wordmark-text-0" data-fill-palette-color="primary" id="text-0"></path></svg></g></svg></g><g transform="matrix(1,0,0,1,118.31980799999998,84.89513142900937)"><svg viewBox="0 0 158.88038399999996 18.81348626410415" height="18.81348626410415" width="158.88038399999996"><g transform="matrix(1,0,0,1,0,0)"><svg width="158.88038399999996" viewBox="3 -37.099998474121094 322.5799865722656 38.19999694824219" height="18.81348626410415" data-palette-color="#ba3b0a"><path d="M39.2-0.05L32.3 0.05 26.8 0Q24.9 0 24.15-1.15L24.15-1.15 19.5-8.55Q19.1-8.85 19.03-8.78 18.95-8.7 18.93-7.08 18.9-5.45 18.65-2.15L18.65-2.15Q18.55-1.35 17.85-0.7 17.15-0.05 15.48 0.05 13.8 0.15 11.43 0.15 9.05 0.15 6.15 0L6.15 0Q4.95-0.05 4.28-0.68 3.6-1.3 3.5-2.15L3.5-2.15Q3-8.25 3-18.45 3-28.65 3.4-33.3L3.4-33.3Q3.55-35 4.08-35.77 4.6-36.55 6.25-36.55L6.25-36.55 15.85-36.55Q17.5-36.55 18.05-35.77 18.6-35 18.75-33.3L18.75-33.3Q19.05-28.95 19.05-18.7L19.05-18.7Q19.05-17.55 19.45-17.55L19.45-17.55Q19.7-17.55 20-17.85L20-17.85 26.55-23.85Q27.4-24.6 27.95-24.83 28.5-25.05 29.5-25.05L29.5-25.05 36.8-25.05Q37.45-25.05 37.75-24.2L37.75-24.2Q37.85-24 37.85-23.6 37.85-23.2 37.35-22.7L37.35-22.7 30.4-16.6Q30-16.2 30.4-15.75L30.4-15.75Q35.15-10.15 40.5-2.65L40.5-2.65Q41.05-1.9 41.05-1.3L41.05-1.3Q41.05-0.05 39.2-0.05L39.2-0.05ZM48.75-25.3L48.75-25.3 58.5-25.3Q60.2-25.3 60.77-24.55 61.35-23.8 61.52-21.23 61.7-18.65 61.7-11.83 61.7-5 61.4-2.2L61.4-2.2Q61.25-1.35 60.55-0.7 59.85-0.05 58.07 0.08 56.3 0.2 53.85 0.2 51.4 0.2 49.4 0.08 47.4-0.05 46.7-0.7 46-1.35 45.9-2.2L45.9-2.2Q45.55-5.45 45.55-12.18 45.55-18.9 45.75-21.35 45.95-23.8 46.5-24.55 47.05-25.3 48.75-25.3ZM54.15-37.1L54.15-37.1Q57.45-37.1 59.12-35.77 60.8-34.45 60.8-32.15L60.8-32.15Q60.8-26.75 53.6-26.75L53.6-26.75Q50.7-26.75 48.65-28 46.6-29.25 46.6-31.75L46.6-31.75Q46.6-37.1 54.15-37.1ZM84.1-17.8L84.1-17.8Q81.15-17.8 81.15-12.93 81.15-8.05 84.1-8.05L84.1-8.05Q85.25-8.05 86.17-8.83 87.1-9.6 87.1-11L87.1-11 87.1-14.85Q87.1-16.25 86.17-17.03 85.25-17.8 84.1-17.8ZM100.59-0.1L100.59-0.1 95.3 0Q92.4 0 91.4-0.1L91.4-0.1Q88.3-0.3 88.3-3.6L88.3-3.6Q86.45-1.5 83.52-0.2 80.6 1.1 78.15 1.1L78.15 1.1Q73.15 1.1 69.92-2.2 66.7-5.5 66.7-12.4L66.7-12.4Q66.7-21 72.55-24.4L72.55-24.4Q75.65-26.25 79.8-26.25 83.95-26.25 86.85-24.4L86.85-24.4Q87.8-23.75 87.9-24.83 88-25.9 88-28L88-28 88-32.15Q88-33.15 88.05-34.18 88.1-35.2 88.65-35.88 89.2-36.55 90.9-36.55L90.9-36.55 100.5-36.55Q102.15-36.55 102.72-35.75 103.3-34.95 103.35-33.3L103.35-33.3Q103.5-26.2 103.5-18.8L103.5-18.8Q103.5-18.8 103.4-2.45L103.4-2.45Q103.4-1.45 102.47-0.78 101.55-0.1 100.59-0.1ZM119.99-6.55L119.99-6.55Q119.99-7.95 118.82-8.75 117.64-9.55 115.97-9.98 114.29-10.4 112.59-10.98 110.89-11.55 109.72-12.98 108.54-14.4 108.54-16.75L108.54-16.75Q108.54-26.05 122.99-26.05L122.99-26.05Q129.19-26.05 132.94-23.95L132.94-23.95Q134.14-23.3 134.64-22.73 135.14-22.15 135.14-20.7 135.14-19.25 134.57-18.53 133.99-17.8 133.42-17.8 132.84-17.8 130.92-18.93 128.99-20.05 126.94-20.1L126.94-20.1Q125.29-20.1 125.29-18.45L125.29-18.45Q125.29-17.35 126.44-16.7 127.59-16.05 129.24-15.58 130.89-15.1 132.54-14.43 134.19-13.75 135.34-12.18 136.49-10.6 136.49-8.2L136.49-8.2Q136.49 1.1 122.04 1.1L122.04 1.1Q114.99 1.1 110.54-0.95L110.54-0.95Q109.19-1.5 108.59-2.08 107.99-2.65 107.99-4.17 107.99-5.7 108.62-6.35 109.24-7 109.67-7 110.09-7 112.54-5.9 114.99-4.8 117.49-4.8 119.99-4.8 119.99-6.55ZM208.09-25.4L213.44-25.4Q214.44-25.4 214.44-24.15L214.44-24.15Q214.44-23.75 214.01-22.55 213.59-21.35 212.16-17.23 210.74-13.1 210.04-11.2L210.04-11.2Q208.09-5.9 205.89-1.6L205.89-1.6Q205.19-0.3 203.34 0.4 201.49 1.1 199.04 1.1 196.59 1.1 194.21 0.38 191.84-0.35 191.04-1.88 190.24-3.4 188.99-6.5 187.74-9.6 187.49-10.1L187.49-10.1Q184.94-3.2 184.16-1.75 183.39-0.3 181.54 0.4 179.69 1.1 177.24 1.1 174.79 1.1 172.41 0.38 170.04-0.35 169.34-1.7L169.34-1.7Q165.09-9.9 160.74-21.6L160.74-21.6Q160.29-22.85 160.29-23.7L160.29-23.7Q160.29-25.45 162.24-25.45L162.24-25.45 172.74-25.45Q174.54-25.45 175.49-24.98 176.44-24.5 176.74-23.05L176.74-23.05 178.99-14.35Q179.14-13.75 179.81-13.75 180.49-13.75 180.69-14.35L180.69-14.35 184.89-23.2Q185.79-25.5 187.94-25.5L187.94-25.5 193.34-25.5Q195.04-25.5 195.91-25.03 196.79-24.55 197.34-23.1L197.34-23.1 200.79-14.35Q200.99-13.75 201.64-13.75 202.29-13.75 202.49-14.35L202.49-14.35 206.39-24.25Q206.69-25 207.06-25.23 207.44-25.45 208.09-25.4L208.09-25.4ZM225.39-23.93Q227.69-25.05 230.11-25.55 232.54-26.05 236.11-26.05 239.69-26.05 242.94-25.18 246.19-24.3 247.79-22.8L247.79-22.8Q250.59-20.05 250.59-16.35L250.59-16.35Q250.59-10.55 240.79-10.55L240.79-10.55Q237.34-10.55 233.64-11.2L233.64-11.2Q233.79-7.9 234.86-6.55 235.94-5.2 238.69-5.2 241.44-5.2 243.24-5.8 245.04-6.4 246.14-7.03 247.24-7.65 248.01-7.65 248.79-7.65 249.34-6.95L249.34-6.95Q250.19-6.05 250.19-4.48 250.19-2.9 249.56-2.33 248.94-1.75 247.59-1.2L247.59-1.2Q242.84 0.8 234.09 0.8L234.09 0.8Q226.84 0.8 222.16-2.68 217.49-6.15 217.49-12.05L217.49-12.05Q217.49-14.9 218.54-17.28 219.59-19.65 221.34-21.23 223.09-22.8 225.39-23.93ZM236.99-20.35L236.99-20.35Q233.94-20.35 233.69-15.4L233.69-15.4Q236.09-15.2 236.19-15.2L236.19-15.2Q239.49-15.2 239.49-17.4L239.49-17.4Q239.49-20.35 236.99-20.35ZM273.18-26.25L273.18-26.25Q289.48-26.25 289.63-15.65L289.63-15.65Q289.73-11.15 289.73-7.4 289.73-3.65 289.68-2.35 289.63-1.05 289.01-0.48 288.38 0.1 286.58 0.1L286.58 0.1 275.98 0.1Q274.38 0.1 273.78-0.48 273.18-1.05 273.13-2.2L273.13-2.2Q273.13-2.25 273.11-2.38 273.08-2.5 273.08-2.6L273.08-2.6Q269.78 0.8 264.08 0.8L264.08 0.8Q260.13 0.8 257.36-1.18 254.58-3.15 254.58-6.63 254.58-10.1 256.56-12.18 258.53-14.25 261.26-15 263.98-15.75 267.11-15.75 270.23-15.75 273.23-15.15L273.23-15.15 273.23-15.35Q273.23-17.85 272.26-18.95 271.28-20.05 269.11-20.05 266.93-20.05 265.48-19.68 264.03-19.3 263.28-18.9L263.28-18.9Q261.23-17.7 260.43-17.7 259.63-17.7 259.01-18.45 258.38-19.2 258.38-20.78 258.38-22.35 258.96-22.95 259.53-23.55 260.78-24.15L260.78-24.15Q265.13-26.25 273.18-26.25ZM270.83-5.8L270.83-5.8Q273.03-5.8 273.08-6.65L273.08-6.65Q273.18-8.3 273.18-11L273.18-11Q273.18-12.05 271.58-12.05 269.98-12.05 268.98-11.28 267.98-10.5 267.98-9 267.98-7.5 268.81-6.65 269.63-5.8 270.83-5.8ZM298.93-25.45L298.93-25.45 308.68-25.45Q310.38-25.45 311.03-24.73 311.68-24 311.68-22.55L311.68-22.55 311.68-20.75Q314.48-26.05 320.78-26.05L320.78-26.05Q322.88-26.05 324.23-24.7 325.58-23.35 325.58-21.1 325.58-18.85 324.38-16.63 323.18-14.4 321.03-14.4L321.03-14.4Q320.03-14.4 318.23-15.43 316.43-16.45 315.33-16.45 314.23-16.45 313.06-15.65 311.88-14.85 311.88-13L311.88-13Q311.88-4.95 311.58-2.35L311.58-2.35Q311.43-1.5 310.73-0.85 310.03-0.2 308.25-0.08 306.48 0.05 304.73 0.05 302.98 0.05 298.78-0.15L298.78-0.15Q297.58-0.2 296.88-0.85 296.18-1.5 296.08-2.35L296.08-2.35Q295.73-5.6 295.73-12.3 295.73-19 295.93-21.48 296.13-23.95 296.68-24.7 297.23-25.45 298.93-25.45Z" opacity="1" transform="matrix(1,0,0,1,0,0)" fill="#ba3b0a" class="slogan-text-1" data-fill-palette-color="secondary" id="text-1"></path></svg></g></svg></g></svg></g></svg></g><g transform="matrix(1,0,0,1,149.31158535556594,0)"><svg viewBox="0 0 96.89682928886806 103.70861769311351" height="103.70861769311351" width="96.89682928886806"><g><svg xmlns="http://www.w3.org/2000/svg" xmlns:xlink="http://www.w3.org/1999/xlink" version="1.1" x="0" y="0" viewBox="13.937541961669922 11.630836486816406 72.12184143066406 77.19196319580078" enable-background="new 0 0 100 100" xml:space="preserve" height="103.70861769311351" width="96.89682928886806" class="icon-icon-0" data-fill-palette-color="accent" id="icon-0"><g fill="#ba3b0a" data-fill-palette-color="accent"><path d="M33.077 27.942c0.308 0.153 0.655 0.326 1.019 0.509l2.296 1.126c-0.355 0.492-0.624 0.957-1.707 2.325-2.138 2.7-6.077 7.674-5.849 11.137 1.032-0.202 3.505-1.689 5.196-2.708 3.144-1.893 6.113-3.681 8.296-3.681 0.008 0 0.014 0 0.021 0 3.32 0.019 4.741 4.207 5.995 7.902 0.39 1.147 0.937 2.764 1.39 3.533 0.29-1.005 0.449-3.068 0.554-4.402 0.16-2.062 0.312-4.011 0.776-5.299 1.152-3.18 7.52-1.705 16.391 0.726 0.699 0.192 1.356 0.372 1.94 0.526-1.333-1.716-3.746-4.327-5.234-5.937-1.702-1.842-3.068-3.564-3.676-4.433 0.51-0.333 1.079-0.684 1.541-0.969 2.598-1.598 4.086-2.562 4.461-3.797 0.149-0.496 0.076-1.027-0.2-1.457-0.505-0.783-1.456-0.909-1.77-0.951-3.062-0.406-12.854 1.427-16.77 2.67 0.408-4.805 1.972-8.129-0.823-12.009-1.954-2.711-4.21 0.099-2.819 2.03 1.934 2.683 0.659 4.966 0.126 10.278-0.176-0.076-0.367-0.16-0.57-0.25-1.188-0.526-2.81-1.245-5.365-2.023-1.621-0.494-3.142-0.837-4.518-1.02-3.556-0.471-5.159 0.257-5.443 0.408l-0.421 0.223-0.218 0.423c-0.215 0.418-0.251 0.901-0.101 1.358C27.964 25.313 29.314 26.069 33.077 27.942z" fill="#ba3b0a" data-fill-palette-color="accent"></path><path d="M64.999 30.876c0.305 0.375 0.63 0.759 0.982 1.14 6.025 6.517 7.434 8.346 6.631 9.766-0.171 0.302-0.702 0.978-1.976 0.715-0.9-0.186-2.263-0.56-3.84-0.992-2.559-0.702-5.742-1.574-8.477-2.069-3.877-0.702-4.794-0.256-4.939-0.159-0.34 0.984-0.482 2.821-0.62 4.599-0.282 3.629-0.521 5.895-1.837 6.745-0.316 0.204-0.67 0.309-1.038 0.309-0.237 0-0.479-0.043-0.718-0.131-1.512-0.544-2.246-2.709-3.175-5.449-0.889-2.62-2.107-6.208-3.657-6.217-0.003 0-0.007 0-0.01 0-1.491 0-4.553 1.844-7.014 3.326-3.892 2.343-6.17 3.631-7.759 2.86-0.373-0.181-1.021-0.647-1.157-1.729-0.544-4.326 3.424-9.534 6.028-12.831-9.964 4.359-16.742 12.703-18.205 22.458-0.977 6.518 0.7 15.043 3.456 19.47 3.283 5.271 8.783 9.41 16.951 12.261 3.91 1.364 9.208 2.862 14.19 3.516 19.747 2.594 34.822-9.172 37.02-25.753C87.589 49.484 78.911 36.751 64.999 30.876zM80.696 62.006c-0.329 1.646-1.117 4.933-2.694 8.439-2.689 5.977-8.595 8.816-9.785 8.659 0 0 0 0-0.001 0-0.103-0.015-0.199-0.04-0.29-0.082-0.304-0.137-0.507-0.414-0.542-0.742-0.063-0.601 0.312-0.879 1.219-1.551 1.58-1.169 4.87-3.603 6.666-7.595 1.479-3.288 2.409-6.67 3.026-8.907 0.725-2.633 0.943-3.426 1.915-3.298l0.129 0.018 0.137 0.058C80.923 57.208 81.598 57.511 80.696 62.006z" fill="#ba3b0a" data-fill-palette-color="accent"></path></g></svg></g></svg></g><g></g></svg></g><defs></defs></svg><rect width="395.5199999999999" height="211.42067553107674" fill="none" stroke="none" visibility="hidden"></rect></g></svg></g></svg>